<svg width="34" height="33" viewBox="0 0 34 33" fill="none" xmlns="http://www.w3.org/2000/svg">
<path d="M17.0392 11.4047L19.6783 12.4969C19.7725 10.7649 21.253 9.43734 22.985 9.53161C24.1915 9.59728 25.2533 10.3493 25.7158 11.4656C26.1632 12.5833 25.9518 13.857 25.1673 14.7703L28.3455 16.0875L28.4017 16.1109L33.0845 4.78125L21.722 0.09375L19.9548 4.43906L19.8189 4.7625L19.7814 4.6125C19.2654 3.37322 17.8446 2.78433 16.6033 3.29531C16.0591 3.5303 15.6156 3.95044 15.3517 4.48125C14.9128 5.74838 15.5841 7.13147 16.8513 7.57041C17.4133 7.76512 18.0273 7.74675 18.5767 7.51875L18.7267 7.45781L18.6376 7.67344L17.0392 11.4047Z" fill="white"/>
<path d="M15.8531 28.0313C17.082 27.6246 17.7486 26.2988 17.342 25.0699C16.9353 23.841 15.6095 23.1745 14.3806 23.5811C13.9137 23.7356 13.5072 24.033 13.2188 24.4313V20.2125H10.3734C10.394 20.368 10.405 20.5245 10.4063 20.6813C10.4063 22.7524 8.72733 24.4313 6.65625 24.4313C4.58517 24.4313 2.90625 22.7524 2.90625 20.6813C2.90752 20.5245 2.91848 20.368 2.93906 20.2125H0.09375V32.4H13.2188V27.2438C13.271 27.3157 13.3274 27.3846 13.3875 27.45C13.4128 27.4981 13.4426 27.5436 13.4766 27.586C14.0306 28.1165 14.8208 28.3208 15.5625 28.125C15.6422 28.125 15.7172 28.0782 15.7922 28.0547L15.8531 28.0313Z" fill="white"/>
<path d="M21.6562 20.2031C21.729 20.1502 21.7979 20.0923 21.8625 20.0297C21.9137 20.0102 21.9601 19.9798 21.9984 19.9406C22.5746 19.3232 22.7654 18.4393 22.4953 17.6391V17.5688C22.0598 16.3498 20.7185 15.7148 19.4996 16.1504C18.2806 16.5859 17.6456 17.9272 18.0812 19.1461C18.2303 19.5635 18.4947 19.93 18.8438 20.2031H14.625V22.125C14.7805 22.1062 14.9371 22.0968 15.0938 22.0969C17.1648 22.0969 18.8438 23.7758 18.8438 25.8469C18.8438 27.918 17.1648 29.5969 15.0938 29.5969C14.937 29.5954 14.7804 29.5845 14.625 29.5641V32.3906H26.8125V20.2031H21.6562Z" fill="white"/>
<path d="M13.2188 10.5375V5.67188H0.09375V18.7969H5.25C4.65984 19.2395 4.3125 19.9342 4.3125 20.6719C4.3125 21.9663 5.36184 23.0156 6.65625 23.0156C7.95066 23.0156 9 21.9663 9 20.6719C9 19.9342 8.65266 19.2395 8.0625 18.7969H13.2188V13.9781C12.2106 14.9241 10.641 14.9241 9.63281 13.9781C8.6827 13.0502 8.66475 11.5277 9.59269 10.5776C9.60591 10.5641 9.61926 10.5507 9.63281 10.5375C10.641 9.59152 12.2106 9.59152 13.2188 10.5375Z" fill="white"/>
</svg>
