<svg width="63" height="63" viewBox="0 0 63 63" fill="none" xmlns="http://www.w3.org/2000/svg">
<g clip-path="url(#clip0_44_94)">
<path d="M49.1541 20.7376C47.7845 17.5961 44.0178 13.7585 40.239 15.406L32.1608 18.9278C31.7846 18.6122 31.3021 18.4519 30.8119 18.4798C30.3039 18.4934 29.8211 18.7038 29.4655 19.0667C28.9848 18.9043 28.4612 18.9236 27.9937 19.1209C27.4684 19.3446 27.0608 19.778 26.8697 20.316C26.2972 20.3145 25.7503 20.5529 25.3618 20.9734C25.0742 21.2899 24.895 21.6898 24.8501 22.1151C24.8501 22.1151 12.9662 27.2961 12.942 27.3387C10.4887 28.7554 9.92276 32.8476 11.7013 36.9271C13.5659 41.204 17.1951 43.6114 19.9641 42.4042L30.5106 37.8062L33.4455 44.538L36.417 39.1034L42.4212 40.6249L39.4864 33.8931L50.0329 29.2951C50.5286 29.079 50.7552 28.502 50.5391 28.0062C50.323 27.5105 49.746 27.2838 49.2502 27.5C47.9757 28.1252 46.4356 27.6033 45.8036 26.3321L48.4963 25.1582C49.5465 24.7004 50.2771 23.3136 49.1541 20.7376ZM29.3166 22.4003C31.4928 21.4515 34.026 22.4466 34.9748 24.6228C35.9235 26.7991 34.9285 29.3323 32.7522 30.281C30.583 31.2267 28.0575 30.2413 27.1019 28.0765C26.1433 25.9046 27.1267 23.3669 29.2986 22.4082C29.3046 22.4055 29.3106 22.4029 29.3166 22.4003ZM23.7702 24.7222C23.8108 24.8396 23.8605 24.9537 23.9189 25.0633C23.1247 25.8585 23.1227 27.1462 23.9144 27.944C23.743 28.4331 23.7594 28.9684 23.9604 29.4461C24.1885 29.9545 24.6146 30.3477 25.1398 30.5342C25.1379 31.105 25.3757 31.6505 25.7952 32.0376C26.0453 32.274 26.3507 32.4439 26.6835 32.5316L21.6482 34.7269C21.6544 33.8832 21.4863 33.0473 21.1546 32.2716C20.1763 30.0277 18.8148 28.3994 17.3391 27.526L23.7702 24.7222ZM19.1815 40.609C17.6646 41.2704 15.0187 39.636 13.4964 36.1444C11.9742 32.6529 12.5775 29.6019 14.0944 28.9406C15.7863 28.203 17.9898 29.9127 19.3594 33.0543C19.3594 33.0543 20.3063 35.3119 18.9913 35.8852C18.3541 36.163 17.1852 35.4175 16.5689 34.0038C16.4351 33.703 16.3354 33.3881 16.2718 33.0651C16.1683 32.5336 15.6536 32.1865 15.122 32.2899C14.5905 32.3934 14.2433 32.9082 14.3468 33.4397C14.4394 33.9029 14.5825 34.3545 14.7737 34.7864C15.8166 37.1785 18.0147 38.4473 19.774 37.6803L28.7497 33.7671L29.728 36.0111L19.1815 40.609ZM35.427 36.8325L33.6441 40.0933L31.032 34.102C31.1644 34.1218 31.2983 34.1295 31.432 34.1252C31.9384 34.1048 32.4188 33.8954 32.7784 33.5382C33.2643 33.7085 33.796 33.6936 34.2715 33.4961C34.7954 33.2705 35.2023 32.8378 35.3955 32.3011C35.791 32.296 36.1771 32.1795 36.5094 31.965L39.0295 37.7454L35.427 36.8325ZM38.7037 32.0979L37.7939 30.0111C37.9134 29.9124 38.0228 29.8022 38.1204 29.6818L44.0085 27.1148C44.3595 27.9199 44.9544 28.5946 45.7093 29.0437L38.7037 32.0979ZM38.4687 27.3936C38.8088 27.0108 38.9854 26.5101 38.9608 25.9987C38.9389 25.4926 38.7297 25.0128 38.3738 24.6524C38.5419 24.1725 38.5226 23.6468 38.3196 23.1805C38.094 22.6567 37.6613 22.2497 37.1246 22.0565C37.1237 21.4846 36.8856 20.9386 36.4672 20.5486C36.0933 20.1963 35.5973 20.0028 35.0836 20.0089C35.0482 19.9501 35.0079 19.8944 34.963 19.8425L41.0216 17.2011C42.8168 16.4185 44.8257 17.8659 46.1113 19.4792C47.6165 21.3759 47.9145 23.0886 47.7137 23.3631L38.4687 27.3936Z" fill="white"/>
</g>
<defs>
<clipPath id="clip0_44_94">
<rect width="47" height="47" fill="white" transform="translate(0.566406 19.3498) rotate(-23.5558)"/>
</clipPath>
</defs>
</svg>
