<svg width="46" height="46" viewBox="0 0 46 46" fill="none" xmlns="http://www.w3.org/2000/svg">
<path d="M39.0042 9.29582C38.6209 7.04374 36.6084 5.31874 34.2605 5.31874C34.0209 5.31874 33.7334 5.36665 33.4938 5.36665C32.3438 3.92915 30.5709 3.01874 28.5584 3.01874C25.6355 3.01874 23.1917 4.98332 22.4251 7.66665C19.7417 8.19374 17.7292 10.5417 17.7292 13.3687C17.7292 16.5792 20.3167 19.1667 23.4792 19.1667C23.4792 19.1667 37.6626 19.1667 37.8542 19.1667C40.6334 19.1667 42.6938 16.9146 42.6938 14.1354C42.6938 11.8354 41.1126 9.91874 39.0042 9.29582ZM37.5667 16.2917H23.3834C22.2813 16.1958 21.323 15.5729 20.8438 14.6146C20.4126 13.6083 20.5084 12.4583 21.1792 11.5479C21.7542 10.7812 22.6167 10.35 23.5272 10.35C23.6709 10.35 23.8626 10.35 24.0063 10.3979L24.8688 10.5417V9.58332C24.8688 7.85832 26.0188 6.3729 27.6959 5.98957C27.9834 5.94165 28.2709 5.89374 28.5584 5.89374C29.948 5.89374 31.1938 6.6604 31.8167 7.90624L32.1042 8.48124L32.7272 8.24165C33.0147 8.14582 33.3501 8.0979 33.6855 8.0979C34.3084 8.0979 34.8834 8.28957 35.4105 8.62499C36.1772 9.19999 36.6563 10.1104 36.6563 11.0687V11.8354H37.6147C38.8605 11.8354 39.8667 12.8417 39.8667 14.0875C39.8188 15.2854 38.8126 16.2917 37.5667 16.2917Z" fill="white"/>
<path d="M24.8209 21.0833H4.88758C4.02508 21.0833 3.35425 21.7541 3.35425 22.6166V36.3208C3.35425 37.1833 4.02508 37.8541 4.88758 37.8541H12.4584V39.7708H9.10425V42.6458H20.6042V39.7708H17.2501V37.8541H24.8209C25.6834 37.8541 26.3542 37.1833 26.3542 36.3208V22.6166C26.3542 21.7541 25.6834 21.0833 24.8209 21.0833ZM23.4792 34.9791H6.22925V23.9583H23.4792V34.9791Z" fill="white"/>
<path d="M33.4458 21.0833C33.925 21.7062 34.1645 22.5208 34.1645 23.2875C34.1645 24.725 33.35 26.0187 32.1041 26.6896V24.725L28.6062 28.2708L32.1041 31.7208V29.7562C35.6979 28.7979 37.8062 25.1083 36.8 21.5146C36.752 21.3708 36.7041 21.2271 36.6562 21.0833H33.4458Z" fill="white"/>
<path d="M10.973 19.1667C10.5897 18.6875 10.2543 17.7292 10.2543 16.9625C10.2543 15.525 11.0688 14.2313 12.3147 13.5604V15.525L15.8126 11.9792L12.3147 8.52917V10.4938C8.72093 11.4521 6.61259 15.1417 7.61884 18.7354C7.66676 18.8792 7.71468 19.0229 7.76259 19.1667H10.973Z" fill="white"/>
</svg>
