<svg width="44" height="44" viewBox="0 0 44 44" fill="none" xmlns="http://www.w3.org/2000/svg">
<path d="M33.9168 23.8104L38.5459 19.1812L41.2501 21.8854V14.5521H33.9168L36.6209 17.2562L32.0834 21.7937L24.2918 29.5854L17.4168 22.7104L3.1626 36.9646L5.0876 38.8896L17.4168 26.5604L24.2918 33.4354L33.9168 23.8104Z" fill="white"/>
<path d="M8.25016 11.4583C9.51582 11.4583 10.5418 10.4323 10.5418 9.16667C10.5418 7.90101 9.51582 6.875 8.25016 6.875C6.98451 6.875 5.9585 7.90101 5.9585 9.16667C5.9585 10.4323 6.98451 11.4583 8.25016 11.4583Z" fill="white"/>
<path d="M30.3279 20.9504L30.7863 20.4921L31.8359 19.4425L30.5617 13.7134C30.5227 13.5104 30.4121 13.3282 30.25 13.2C29.7011 12.7693 29.0805 12.4388 28.4167 12.2238C27.2193 11.8145 25.9199 11.8145 24.7225 12.2238C24.059 12.4393 23.4384 12.7698 22.8892 13.2C22.7306 13.3313 22.6208 13.5121 22.5775 13.7134L22 16.3992L21.3996 13.7134C21.3576 13.5105 21.2457 13.3288 21.0834 13.2C20.5344 12.7693 19.9138 12.4388 19.25 12.2238C17.3683 11.6164 15.3078 11.9821 13.75 13.2C13.5914 13.3313 13.4817 13.5121 13.4384 13.7134L12.8334 16.3121L12.2375 13.7134C12.1918 13.5109 12.0787 13.3299 11.9167 13.2C11.3675 12.7698 10.7469 12.4393 10.0834 12.2238C8.88597 11.8145 7.5866 11.8145 6.3892 12.2238C5.72604 12.4403 5.10568 12.7707 4.55587 13.2C4.39728 13.3313 4.2875 13.5121 4.2442 13.7134L2.7867 20.3684C2.65613 20.8811 2.96588 21.4025 3.47855 21.5331C3.4908 21.5362 3.50309 21.5391 3.51545 21.5417C3.56577 21.5462 3.61638 21.5462 3.6667 21.5417C4.10502 21.5519 4.48922 21.2503 4.58337 20.8221L5.95837 14.6667V17.9209L4.58337 24.75H5.95837V31.5746L7.7917 29.7413V24.75H8.70837V28.8246L10.5417 26.9913V24.75H11.9167L10.5417 17.9254V14.7171L11.9167 20.7029C11.9573 21.1786 12.3561 21.5434 12.8334 21.5417C13.2614 21.5389 13.6305 21.2402 13.7225 20.8221L13.75 20.625L15.0884 14.7446V22.4309L16.1013 21.4134C16.8168 20.697 17.9777 20.6963 18.694 21.4119L18.6955 21.4134L19.7084 22.3896V14.7492L21.0834 20.8267C21.1794 21.2531 21.5631 21.5524 22 21.5417C22.4298 21.541 22.8014 21.2418 22.8938 20.8221L24.2688 14.7446V26.9821L26.1021 25.1488V22H27.0188V24.2504L28.8521 22.4171V14.7492L30.2959 20.955L30.3279 20.9504Z" fill="white"/>
<path d="M26.5788 11.4583C27.8444 11.4583 28.8704 10.4323 28.8704 9.16667C28.8704 7.90101 27.8444 6.875 26.5788 6.875C25.3131 6.875 24.2871 7.90101 24.2871 9.16667C24.2871 10.4323 25.3131 11.4583 26.5788 11.4583Z" fill="white"/>
<path d="M17.3981 11.4583C18.6638 11.4583 19.6898 10.4323 19.6898 9.16667C19.6898 7.90101 18.6638 6.875 17.3981 6.875C16.1325 6.875 15.1064 7.90101 15.1064 9.16667C15.1064 10.4323 16.1325 11.4583 17.3981 11.4583Z" fill="white"/>
</svg>
